<svg width="32" height="31" viewBox="0 0 32 31" fill="none" xmlns="http://www.w3.org/2000/svg">
<path d="M16.0243 7.71603C11.6649 7.71603 8.14848 11.1233 8.14848 15.3475C8.14848 19.5716 11.6649 22.9789 16.0243 22.9789C20.3838 22.9789 23.9002 19.5716 23.9002 15.3475C23.9002 11.1233 20.3838 7.71603 16.0243 7.71603ZM16.0243 20.3089C13.2071 20.3089 10.904 18.0839 10.904 15.3475C10.904 12.611 13.2003 10.386 16.0243 10.386C18.8484 10.386 21.1447 12.611 21.1447 15.3475C21.1447 18.0839 18.8415 20.3089 16.0243 20.3089ZM26.0594 7.40386C26.0594 8.39349 25.2368 9.18387 24.2223 9.18387C23.201 9.18387 22.3853 8.38685 22.3853 7.40386C22.3853 6.42088 23.2079 5.62386 24.2223 5.62386C25.2368 5.62386 26.0594 6.42088 26.0594 7.40386ZM31.2756 9.21043C31.1591 6.82603 30.597 4.71394 28.7943 2.97378C26.9984 1.23363 24.8187 0.689005 22.3579 0.569452C19.8217 0.429974 12.2201 0.429974 9.6839 0.569452C7.22998 0.682363 5.05024 1.22699 3.2475 2.96714C1.44476 4.70729 0.889543 6.81939 0.766162 9.20379C0.622217 11.6613 0.622217 19.027 0.766162 21.4845C0.882689 23.8689 1.44476 25.981 3.2475 27.7211C5.05024 29.4613 7.22312 30.0059 9.6839 30.1255C12.2201 30.2649 19.8217 30.2649 22.3579 30.1255C24.8187 30.0126 26.9984 29.4679 28.7943 27.7211C30.5902 25.981 31.1523 23.8689 31.2756 21.4845C31.4196 19.027 31.4196 11.6679 31.2756 9.21043ZM27.9992 24.1213C27.4645 25.4231 26.4295 26.426 25.0792 26.9507C23.0571 27.7278 18.2589 27.5484 16.0243 27.5484C13.7898 27.5484 8.98473 27.7211 6.9695 26.9507C5.62602 26.4326 4.59099 25.4297 4.04948 24.1213C3.2475 22.1619 3.43257 17.5127 3.43257 15.3475C3.43257 13.1822 3.25435 8.52633 4.04948 6.57364C4.58413 5.27185 5.61916 4.26893 6.9695 3.74423C8.99159 2.96714 13.7898 3.14647 16.0243 3.14647C18.2589 3.14647 23.0639 2.97378 25.0792 3.74423C26.4226 4.26229 27.4577 5.2652 27.9992 6.57364C28.8012 8.53297 28.6161 13.1822 28.6161 15.3475C28.6161 17.5127 28.8012 22.1686 27.9992 24.1213Z" fill="white"/>
</svg>
