<svg width="32" height="30" viewBox="0 0 32 30" fill="none" xmlns="http://www.w3.org/2000/svg">
<path d="M19.5278 11.6754V16.3993C19.5278 16.5189 19.4318 16.6119 19.3083 16.6119H18.5265C18.451 16.6119 18.3824 16.572 18.3481 16.5255L16.1123 13.6022V16.4059C16.1123 16.5255 16.0163 16.6185 15.8929 16.6185H15.111C14.9876 16.6185 14.8915 16.5255 14.8915 16.4059V11.682C14.8915 11.5624 14.9876 11.4694 15.111 11.4694H15.886C15.9546 11.4694 16.03 11.5026 16.0643 11.5624L18.3001 14.4858V11.682C18.3001 11.5624 18.3961 11.4694 18.5196 11.4694H19.3014C19.4249 11.4628 19.5278 11.5624 19.5278 11.6754ZM13.9039 11.4628H13.1221C12.9986 11.4628 12.9026 11.5558 12.9026 11.6754V16.3993C12.9026 16.5189 12.9986 16.6119 13.1221 16.6119H13.9039C14.0274 16.6119 14.1234 16.5189 14.1234 16.3993V11.6754C14.1234 11.5624 14.0274 11.4628 13.9039 11.4628ZM12.0179 15.4226H9.88494V11.6754C9.88494 11.5558 9.78893 11.4628 9.66548 11.4628H8.88363C8.76018 11.4628 8.66416 11.5558 8.66416 11.6754V16.3993C8.66416 16.4591 8.68473 16.5056 8.72588 16.5455C8.76703 16.5787 8.81504 16.6052 8.87677 16.6052H12.011C12.1345 16.6052 12.2305 16.5122 12.2305 16.3926V15.6352C12.2305 15.5223 12.1345 15.4226 12.0179 15.4226ZM23.6428 11.4628H20.5085C20.3919 11.4628 20.289 11.5558 20.289 11.6754V16.3993C20.289 16.5122 20.3851 16.6119 20.5085 16.6119H23.6428C23.7662 16.6119 23.8622 16.5189 23.8622 16.3993V15.6419C23.8622 15.5223 23.7662 15.4293 23.6428 15.4293H21.5098V14.632H23.6428C23.7662 14.632 23.8622 14.539 23.8622 14.4194V13.6553C23.8622 13.5357 23.7662 13.4427 23.6428 13.4427H21.5098V12.6454H23.6428C23.7662 12.6454 23.8622 12.5524 23.8622 12.4328V11.6754C23.8554 11.5624 23.7594 11.4628 23.6428 11.4628ZM31.5916 5.66255V24.6179C31.5847 27.5945 29.0677 30.0062 25.9883 29.9996H6.42148C3.34894 29.9929 0.859367 27.5479 0.866225 24.5714V5.61604C0.873083 2.63952 3.39695 0.227745 6.46949 0.234389H26.0363C29.1089 0.241033 31.5985 2.67939 31.5916 5.66255ZM27.3669 13.8081C27.3669 8.95798 22.3466 5.01144 16.1809 5.01144C10.0153 5.01144 4.99495 8.95798 4.99495 13.8081C4.99495 18.1533 8.97278 21.7942 14.3497 22.4852C15.6597 22.7576 15.5088 23.2227 15.2139 24.9302C15.1659 25.2026 14.9876 25.9999 16.1809 25.5149C17.3743 25.0299 22.6209 21.8407 24.9733 19.223C26.5919 17.4955 27.3669 15.7482 27.3669 13.8081Z" fill="white"/>
</svg>
